<?xml version="1.0" encoding="UTF-8" standalone="no"?>
<svg
   xmlns:dc="http://purl.org/dc/elements/1.1/"
   xmlns:cc="http://creativecommons.org/ns#"
   xmlns:rdf="http://www.w3.org/1999/02/22-rdf-syntax-ns#"
   xmlns:svg="http://www.w3.org/2000/svg"
   xmlns="http://www.w3.org/2000/svg"
   xmlns:sodipodi="http://sodipodi.sourceforge.net/DTD/sodipodi-0.dtd"
   xmlns:inkscape="http://www.inkscape.org/namespaces/inkscape"
   sodipodi:docname="logo-union-store.svg"
   inkscape:version="1.0 (4035a4fb49, 2020-05-01)"
   id="svg3796"
   version="1.1"
   viewBox="0 0 23.02966 15.874576"
   height="59.998394"
   width="87.041237">
  <defs
     id="defs3790" />
  <sodipodi:namedview
     inkscape:document-rotation="0"
     inkscape:window-maximized="1"
     inkscape:window-y="-8"
     inkscape:window-x="-8"
     inkscape:window-height="1017"
     inkscape:window-width="1920"
     inkscape:guide-bbox="true"
     showguides="true"
     showborder="true"
     showgrid="false"
     inkscape:current-layer="layer1"
     inkscape:document-units="px"
     inkscape:cy="27.006447"
     inkscape:cx="43.065453"
     inkscape:zoom="6.8733269"
     inkscape:pageshadow="2"
     inkscape:pageopacity="0.0"
     borderopacity="1.0"
     bordercolor="#666666"
     pagecolor="#ffffff"
     id="base"
     units="px"
     inkscape:showpageshadow="false"
     fit-margin-top="0"
     fit-margin-left="0"
     fit-margin-right="0"
     fit-margin-bottom="0" />
  <metadata
     id="metadata3793">
    <rdf:RDF>
      <cc:Work
         rdf:about="">
        <dc:format>image/svg+xml</dc:format>
        <dc:type
           rdf:resource="http://purl.org/dc/dcmitype/StillImage" />
        <dc:title />
      </cc:Work>
    </rdf:RDF>
  </metadata>
  <g
     id="layer1"
     inkscape:groupmode="layer"
     inkscape:label="Capa 1"
     transform="translate(-22.466564,-196.40673)">
    <rect
       y="170.26459"
       x="-32.543751"
       height="71.96666"
       width="104.51041"
       id="rect3809"
       style="fill:none;fill-opacity:1;stroke-width:0.272119" />
    <path
       inkscape:connector-curvature="0"
       id="path4620"
       d="m 33.961319,196.40673 a 0.44036555,0.44036555 0 0 0 -0.357976,0.21973 l -2.439971,4.22594 -0.836871,-1.44966 a 0.44036555,0.44036555 0 0 0 -0.762762,0 l -7.038211,12.19117 a 0.44036555,0.44036555 0 0 0 0.381381,0.66049 h 11.762567 a 0.44036555,0.44036555 0 1 0 0,-0.88064 H 23.66967 l 6.275449,-10.87022 0.709889,1.22951 -4.956219,8.58453 a 0.44036555,0.44036555 0 0 0 0.381382,0.66049 h 5.590264 a 0.44036555,0.44036555 0 0 0 0.38138,-0.22016 l 2.288285,-3.96332 a 0.44036555,0.44036555 0 0 0 0,-0.44033 l -2.667931,-4.62121 2.312554,-4.00579 3.073584,5.32372 -2.720372,4.61385 a 0.44036555,0.44036555 0 0 0 -0.0023,0.44379 l 2.266618,3.92561 a 0.44036555,0.44036555 0 0 0 0.381381,0.22017 h 5.642268 a 0.44036555,0.44036555 0 0 0 0.381382,-0.66049 l -4.929782,-8.53859 0.706422,-1.19745 5.509654,9.54275 h -0.107497 a 0.44036555,0.44036555 0 1 0 0,0.88064 h 0.870244 a 0.44036555,0.44036555 0 0 0 0.380946,-0.66047 L 39.169278,200.764 a 0.44036555,0.44036555 0 0 0 -0.760596,-0.003 l -0.83687,1.41912 -3.205767,-5.55299 A 0.44036555,0.44036555 0 0 0 33.96126,196.4074 Z m -2.797947,6.20697 2.286985,3.96073 -2.033887,3.52301 h -4.573538 z m 6.400697,1.31316 4.299204,7.4469 h -4.625544 l -2.010483,-3.48314 z"
       style="color:#000000;font-style:normal;font-variant:normal;font-weight:normal;font-stretch:normal;font-size:medium;line-height:normal;font-family:sans-serif;font-variant-ligatures:normal;font-variant-position:normal;font-variant-caps:normal;font-variant-numeric:normal;font-variant-alternates:normal;font-feature-settings:normal;text-indent:0;text-align:start;text-decoration:none;text-decoration-line:none;text-decoration-style:solid;text-decoration-color:#000000;letter-spacing:normal;word-spacing:normal;text-transform:none;writing-mode:lr-tb;direction:ltr;text-orientation:mixed;dominant-baseline:auto;baseline-shift:baseline;text-anchor:start;white-space:normal;shape-padding:0;clip-rule:nonzero;display:inline;overflow:visible;visibility:visible;isolation:auto;mix-blend-mode:normal;color-interpolation:sRGB;color-interpolation-filters:linearRGB;solid-color:#000000;solid-opacity:1;vector-effect:none;fill:#5d675b;fill-opacity:1;fill-rule:nonzero;stroke:none;stroke-width:0.880643;stroke-linecap:round;stroke-linejoin:round;stroke-miterlimit:4;stroke-dasharray:none;stroke-dashoffset:0;stroke-opacity:1;color-rendering:auto;image-rendering:auto;shape-rendering:auto;text-rendering:auto;enable-background:accumulate" />
  </g>
</svg>
